<svg version="1.2" xmlns="http://www.w3.org/2000/svg" viewBox="0 0 43 44" width="43" height="44">
	<title>add-svg</title>
	<style>
		.s0 { fill: #ffffff } 
		.s1 { fill: none;stroke: #efefef } 
		.s2 { fill: #ababab } 
	</style>
	<g id="Group_91">
		<g id="Layer">
			<g id="Rectangle_130-2">
				<path id="Layer" class="s0" d="m1 22c0-11 9-20 20-20 11 0 20 9 20 20 0 11-9 20-20 20-11 0-20-9-20-20z"/>
				<path id="Layer" class="s1" d="m1.5 22c0-10.8 8.7-19.5 19.5-19.5 10.8 0 19.5 8.7 19.5 19.5 0 10.8-8.7 19.5-19.5 19.5-10.8 0-19.5-8.7-19.5-19.5z"/>
			</g>
		</g>
		<path id="plus" fill-rule="evenodd" class="s2" d="m22.3 23.3v5.9q0 0.3-0.2 0.6-0.3 0.2-0.6 0.2-0.3 0-0.6-0.2-0.2-0.3-0.2-0.6v-5.9h-5.9q-0.3 0-0.6-0.2-0.2-0.3-0.2-0.6 0-0.3 0.2-0.6 0.3-0.2 0.6-0.2h5.9v-5.9q0-0.3 0.2-0.6 0.3-0.2 0.6-0.2 0.3 0 0.6 0.2 0.2 0.3 0.2 0.6v5.9h5.9q0.3 0 0.6 0.2 0.2 0.3 0.2 0.6 0 0.3-0.2 0.6-0.3 0.2-0.6 0.2z"/>
	</g>
</svg>