<svg xmlns="http://www.w3.org/2000/svg" xmlns:xlink="http://www.w3.org/1999/xlink" width="120" height="70" viewBox="0 0 120 70">
  <defs>
    <filter id="Rectangle_130" x="0" y="0" width="70" height="70" filterUnits="userSpaceOnUse">
      <feOffset dx="5" dy="5" input="SourceAlpha"/>
      <feGaussianBlur stdDeviation="5" result="blur"/>
      <feFlood flood-opacity="0.051"/>
      <feComposite operator="in" in2="blur"/>
      <feComposite in="SourceGraphic"/>
    </filter>
    <filter id="Rectangle_130-2" x="50" y="0" width="70" height="70" filterUnits="userSpaceOnUse">
      <feOffset dx="5" dy="5" input="SourceAlpha"/>
      <feGaussianBlur stdDeviation="5" result="blur-2"/>
      <feFlood flood-opacity="0.051"/>
      <feComposite operator="in" in2="blur-2"/>
      <feComposite in="SourceGraphic"/>
    </filter>
  </defs>
  <g id="Group_199" data-name="Group 199" transform="translate(-1138 -118)">
    <g id="Group_198" data-name="Group 198" transform="translate(808 -58)">
      <g id="Group_183" data-name="Group 183" transform="translate(-860 58)">
        <g id="Group_91" data-name="Group 91">
          <g transform="matrix(1, 0, 0, 1, 1190, 118)" filter="url(#Rectangle_130)">
            <g id="Rectangle_130-3" data-name="Rectangle 130" transform="translate(10 10)" fill="#fff" stroke="#efefef" stroke-width="1">
              <rect width="40" height="40" rx="20" stroke="none"/>
              <rect x="0.5" y="0.5" width="39" height="39" rx="19.5" fill="none"/>
            </g>
          </g>
          <path id="plus" d="M12.833,12.833v5.833a.833.833,0,0,1-1.667,0V12.833H5.333a.833.833,0,1,1,0-1.667h5.833V5.333a.833.833,0,1,1,1.667,0v5.833h5.833a.833.833,0,0,1,0,1.667Z" transform="translate(1208.5 136.5)" fill="#ababab" fill-rule="evenodd"/>
        </g>
      </g>
    </g>
    <g transform="matrix(1, 0, 0, 1, 1138, 118)" filter="url(#Rectangle_130-2)">
      <g id="Rectangle_130-4" data-name="Rectangle 130" transform="translate(60 10)" fill="#fff" stroke="#efefef" stroke-width="1">
        <rect width="40" height="40" rx="20" stroke="none"/>
        <rect x="0.5" y="0.5" width="39" height="39" rx="19.5" fill="none"/>
      </g>
    </g>
    <path id="equalizer" d="M14.562,10.313H11.749a.476.476,0,0,1-.469-.469V8.906a.476.476,0,0,1,.469-.469h2.812a.476.476,0,0,1,.469.469v.938a.476.476,0,0,1-.469.469ZM12.218.938a.906.906,0,0,1,.271-.666.955.955,0,0,1,1.333,0,.906.906,0,0,1,.271.666V7.5H12.218V.938ZM8.936,5.625H6.124a.476.476,0,0,1-.469-.469V4.219a.476.476,0,0,1,.469-.469H8.936a.476.476,0,0,1,.469.469v.938a.476.476,0,0,1-.469.469ZM6.592.938A.894.894,0,0,1,6.871.271a.936.936,0,0,1,1.318,0,.894.894,0,0,1,.278.666V2.813H6.592V.938ZM3.311,12.188H.5a.45.45,0,0,1-.329-.139.453.453,0,0,1-.139-.329v-.938a.45.45,0,0,1,.139-.329A.453.453,0,0,1,.5,10.313H3.311a.476.476,0,0,1,.469.469v.938a.476.476,0,0,1-.469.469ZM.967.938A.906.906,0,0,1,1.238.271.906.906,0,0,1,1.9,0a.906.906,0,0,1,.666.271.906.906,0,0,1,.271.666V9.375H.967V.938ZM2.842,14.063a.912.912,0,0,1-.271.659A.894.894,0,0,1,1.9,15a.894.894,0,0,1-.666-.278.912.912,0,0,1-.271-.659v-.938H2.842v.938Zm5.625,0a.937.937,0,0,1-1.874,0v-7.5H8.468v7.5Zm5.625,0a.95.95,0,0,1-.945.937.885.885,0,0,1-.659-.278.915.915,0,0,1-.271-.659V11.25h1.875v2.812Z" transform="translate(1210.97 140)" fill="#ababab"/>
  </g>
</svg>
